<?xml version="1.0" encoding="utf-8"?>
<!-- Generator: Adobe Illustrator 18.0.0, SVG Export Plug-In . SVG Version: 6.00 Build 0)  -->
<!DOCTYPE svg PUBLIC "-//W3C//DTD SVG 1.1//EN" "http://www.w3.org/Graphics/SVG/1.1/DTD/svg11.dtd">
<svg version="1.1" id="图层_1" xmlns="http://www.w3.org/2000/svg" xmlns:xlink="http://www.w3.org/1999/xlink" x="0px" y="0px"
	 viewBox="0 0 595.3 841.9" enable-background="new 0 0 595.3 841.9" xml:space="preserve">
<path fill="#5B5C5C" d="M173.7,443.7 C177,444.7 181.4,449.8 188.6,458.7 C214.6,490.5 239.2,523.4 266.1,554.5 C277.2,567.4 278.1,569.9 279.8,564.6 C288.3,537.8 296.6,513.3 289.1,502 C271.4,480.8 226.1,426.6 208.4,405.4 L173.7,443.7 Z M183.4,409.6 C186,395.8 190.2,382 190.8,368.1 C191.7,346.2 201.4,342.6 221.4,342.4 C247.5,342.1 293.6,342.1 320,342.4 C325.8,342.5 320.7,343.1 319.8,337.6 C316.5,317.6 306.2,293.5 285.5,293.1 C260.2,292.7 241.8,293.1 216.4,293.1 C206.7,293.1 197.4,290.1 198.6,276.3 C202,237.5 199,198.5 203.2,159.7 C204.9,144.1 211.1,139 225.7,139.5 C245,140.2 279.9,139.9 299.2,139.5 C321.9,139.1 327.1,145.9 303.9,106 C296.7,93.7 287,95.7 275.6,95.7 C227.2,95.7 176.1,95.3 127.6,95.7 C111.3,95.8 108.4,87.5 114.2,71.3 C119.7,55.8 126.3,27.3 131.3,11.6 C135.9,-3 131.2,0.5 131.2,0.5 C111,12.2 76,27.4 67.8,48.2 C47.8,99.1 24.8,163.4 3.6,213.9 C1.7,218.3 0.3,218.8 14.7,215.2 C41.5,208.5 68,194.2 80.8,169.1 C96.5,138.3 99.8,136.8 133,139.5 C143.2,140.3 147.4,143.5 147.1,154.4 C146,192.5 145.3,230.7 145.6,268.9 C145.8,285.8 138.9,293.6 122.8,293.1 C97.5,292.3 69.2,293.6 43.9,293.1 C27.6,292.8 9.6,309.4 6.8,331.3 C5.6,339.8 3.5,342.3 4.4,342.4 C33.5,342.1 88.8,343.2 117.8,342.4 C133.4,342 139.7,345.5 137.1,362.1 C131,401 119.7,438 101.2,472.5 C78.3,515.1 48,551.7 10.5,582.4 C6.1,586 -0.6,589.6 1.3,596.5 C3.3,603.9 10.9,603 16.5,602.8 C52,601.5 86.4,597.4 111.6,567.3 C137,537 152.6,501.6 166.4,465.1 L183.4,409.6 Z M394.1,505.2 L394.1,145.1 L547,145.1 L547,505.2 L497.7,505.2 L427.9,550.1 L413.8,505.2 L394.1,505.2 Z M596.3,100.7 L344.7,100.7 L344.7,549.5 L394,549.5 L408.4,603.5 L482.7,549.5 L596.1,549.5 L596.1,101.8" />
</svg>
