<?xml version="1.0" encoding="utf-8"?>
<!-- Generator: Adobe Illustrator 18.0.0, SVG Export Plug-In . SVG Version: 6.00 Build 0)  -->
<!DOCTYPE svg PUBLIC "-//W3C//DTD SVG 1.1//EN" "http://www.w3.org/Graphics/SVG/1.1/DTD/svg11.dtd">
<svg version="1.1" id="图层_1" xmlns="http://www.w3.org/2000/svg" xmlns:xlink="http://www.w3.org/1999/xlink" x="0px" y="0px"
	 viewBox="0 0 595.3 841.9" enable-background="new 0 0 595.3 841.9" xml:space="preserve">
<path fill="#5B5C5C" d="M0 160v960q0 119 84.5 203.5t203.5 84.5h960q119 0 203.5 -84.5t84.5 -203.5v-960q0 -119 -84.5 -203.5t-203.5 -84.5h-960q-119 0 -203.5 84.5t-84.5 203.5zM256 640q0 -88 62.5 -150.5t150.5 -62.5q83 0 145 57l241 -120q-2 -16 -2 -23q0 -88 63 -150.5t151 -62.5 t150.5 62.5t62.5 150.5t-62.5 151t-150.5 63q-84 0 -145 -58l-241 120q2 16 2 23t-2 23l241 120q61 -58 145 -58q88 0 150.5 63t62.5 151t-62.5 150.5t-150.5 62.5t-151 -62.5t-63 -150.5q0 -7 2 -23l-241 -120q-62 57 -145 57q-88 0 -150.5 -62.5t-62.5 -150.5z" />
</svg>
