<?xml version="1.0" encoding="utf-8"?>
<!-- Generator: Adobe Illustrator 18.0.0, SVG Export Plug-In . SVG Version: 6.00 Build 0)  -->
<!DOCTYPE svg PUBLIC "-//W3C//DTD SVG 1.1//EN" "http://www.w3.org/Graphics/SVG/1.1/DTD/svg11.dtd">
<svg version="1.1" id="图层_1" xmlns="http://www.w3.org/2000/svg" xmlns:xlink="http://www.w3.org/1999/xlink" x="0px" y="0px"
	 viewBox="0 0 595.3 841.9" enable-background="new 0 0 595.3 841.9" xml:space="preserve">
<path fill="#5B5C5C" d="M0 640q0 133 93.5 226.5t226.5 93.5q126 0 218 -86l360 180q-2 22 -2 34q0 133 93.5 226.5t226.5 93.5t226.5 -93.5t93.5 -226.5t-93.5 -226.5t-226.5 -93.5q-126 0 -218 86l-360 -180q2 -22 2 -34t-2 -34l360 -180q92 86 218 86q133 0 226.5 -93.5t93.5 -226.5 t-93.5 -226.5t-226.5 -93.5t-226.5 93.5t-93.5 226.5q0 12 2 34l-360 180q-92 -86 -218 -86q-133 0 -226.5 93.5t-93.5 226.5z" />
</svg>
