<?xml version="1.0" encoding="UTF-8" standalone="no"?>
<svg width="1533px" height="1535px" viewBox="0 0 1533 1535" version="1.1" xmlns="http://www.w3.org/2000/svg" xmlns:xlink="http://www.w3.org/1999/xlink" xmlns:sketch="http://www.bohemiancoding.com/sketch/ns">
    <!-- Generator: Sketch 3.2.2 (9983) - http://www.bohemiancoding.com/sketch -->
    <title>1</title>
    <desc>Created with Sketch.</desc>
    <defs></defs>
    <g id="Page-1" stroke="none" stroke-width="1" fill="none" fill-rule="evenodd" sketch:type="MSPage">
        <g id="1" sketch:type="MSLayerGroup" transform="translate(-2.000000, 0.000000)" fill="#5B5C5C">
            <path d="M446.906533,1128.34967 C455.396985,1130.89272 466.717588,1143.86225 485.242211,1166.49536 C552.136683,1247.36424 615.429146,1331.03046 684.639196,1410.11921 C713.19799,1442.9245 715.513568,1449.28212 719.887437,1435.80397 C741.756784,1367.65033 763.111558,1305.3457 743.815075,1276.60927 C698.275377,1222.69669 581.724623,1084.86358 536.184925,1030.95099 L446.906533,1128.34967 L446.906533,1128.34967 Z M471.863317,1041.63179 C478.552764,1006.53775 489.358794,971.443709 490.902513,936.095364 C493.21809,880.402649 518.174874,871.247682 569.632161,870.739073 C636.78392,869.976159 755.392965,869.976159 823.316583,870.739073 C838.239196,870.993377 825.117588,872.519205 822.80201,858.53245 C814.311558,807.671523 787.811055,746.384106 734.552764,745.366887 C669.459296,744.349669 622.118593,745.366887 556.767839,745.366887 C531.811055,745.366887 507.883417,737.737748 510.970854,702.643709 C519.718593,603.97351 512,504.794702 522.80603,406.124503 C527.179899,366.45298 543.131658,353.483444 580.695477,354.754967 C630.351759,356.535099 720.144724,355.772185 769.801005,354.754967 C828.205025,353.737748 841.58392,371.030464 781.893467,269.562914 C763.368844,238.283444 738.41206,243.369536 709.081407,243.369536 C584.554774,243.369536 453.081407,242.352318 328.297487,243.369536 C286.359799,243.623841 278.898492,222.516556 293.821106,181.319205 C307.971859,141.901987 324.952764,69.4251656 337.817085,29.4993377 C349.652261,-7.62913907 337.559799,1.27152318 337.559799,1.27152318 C285.58794,31.0251656 195.537688,69.6794702 174.440201,122.574834 C122.982915,252.015894 63.8070352,415.533775 9.26231156,543.957616 C4.37386935,555.14702 0.771859296,556.418543 37.8211055,547.263576 C106.773869,530.225166 174.954774,493.859603 207.887437,430.029139 C248.281407,351.703311 256.771859,347.888742 342.190955,354.754967 C368.434171,356.789404 379.240201,364.927152 378.468342,392.646358 C375.638191,489.536424 373.837186,586.680795 374.609045,683.825166 C375.123618,726.802649 357.370854,746.638411 315.947739,745.366887 C250.854271,743.33245 178.042211,746.638411 112.948744,745.366887 C71.0110553,744.603974 24.6994975,786.818543 17.4954774,842.511258 C14.4080402,864.127152 9.00502513,870.484768 11.320603,870.739073 C86.1909548,869.976159 228.470352,872.77351 303.083417,870.739073 C343.220101,869.721854 359.429146,878.622517 352.739698,920.837086 C337.045226,1019.76159 307.971859,1113.8543 260.373869,1201.5894 C201.455276,1309.92318 123.497487,1402.99868 27.0150754,1481.0702 C15.6944724,1490.22517 -1.54371859,1499.38013 3.34472362,1516.92715 C8.49045226,1535.7457 28.0442211,1533.45695 42.4522613,1532.94834 C133.788945,1529.64238 222.295477,1519.21589 287.131658,1442.6702 C352.482412,1365.61589 392.619095,1275.59205 428.124623,1182.77086 L471.863317,1041.63179 L471.863317,1041.63179 Z M1013.96583,1284.74702 L1013.96583,368.996026 L1407.35678,368.996026 L1407.35678,1284.74702 L1280.51457,1284.74702 L1100.92864,1398.9298 L1064.65126,1284.74702 L1013.96583,1284.74702 L1013.96583,1284.74702 Z M1534.19899,256.084768 L886.866332,256.084768 L886.866332,1397.40397 L1013.70854,1397.40397 L1050.75779,1534.72848 L1241.92161,1397.40397 L1533.68442,1397.40397 L1533.68442,258.882119 L1534.19899,256.084768 Z" id="Shape" sketch:type="MSShapeGroup"></path>
        </g>
    </g>
</svg>